<svg version="1.1" id="Layer_1" xmlns="http://www.w3.org/2000/svg" xmlns:xlink="http://www.w3.org/1999/xlink" x="0px" y="0px"
	 width="100%" viewBox="0 0 150 150" enable-background="new 0 0 150 150" xml:space="preserve">
<path fill="#FEFEFD" opacity="1.000000" stroke="none" 
	d="
M89.000000,151.000000 
	C59.357655,151.000000 30.215305,151.000000 1.036479,151.000000 
	C1.036479,101.066032 1.036479,51.132030 1.036479,1.099015 
	C50.892124,1.099015 100.784508,1.099015 150.838440,1.099015 
	C150.838440,50.999580 150.838440,100.999741 150.838440,151.000000 
	C130.465729,151.000000 109.982864,151.000000 89.000000,151.000000 
M99.028076,125.209259 
	C125.351959,113.992462 140.678986,86.749420 135.724976,59.442528 
	C128.576660,24.087940 95.960281,2.366006 62.354477,10.579059 
	C28.558073,18.838692 8.735802,52.653915 18.100821,86.072289 
	C27.669376,120.216972 67.276039,139.592606 99.028076,125.209259 
z"/>
<path fill="#B22121" opacity="1.000000" stroke="none" 
	d="
M98.310448,125.310966 
	C67.276039,139.592606 27.669376,120.216972 18.100821,86.072289 
	C8.735802,52.653915 28.558073,18.838692 62.354477,10.579059 
	C95.960281,2.366006 128.576660,24.087940 135.310791,59.804611 
	C125.024673,53.350952 115.173241,46.505093 105.255646,39.756451 
	C103.972511,38.883308 102.347343,38.512794 100.522308,37.987766 
	C99.896248,49.673191 88.888451,51.612225 82.231750,58.690205 
	C80.916992,52.901291 79.801170,47.988323 78.641777,42.883507 
	C74.403862,43.414928 69.402435,41.996307 67.168549,48.262886 
	C68.979050,49.143959 70.878395,50.068272 72.893448,51.048889 
	C71.573395,53.441036 70.269608,55.803688 69.361694,57.448971 
	C65.755501,55.097027 62.294621,53.478291 59.697777,50.966328 
	C57.110214,48.463337 55.269142,45.137985 53.356712,42.016396 
	C52.725391,40.985912 52.890846,39.467285 52.691986,38.171856 
	C47.590065,48.333862 46.369015,58.618740 50.410187,69.051956 
	C52.886360,75.444771 57.511436,79.281700 65.273201,78.712044 
	C64.701012,80.018295 64.268631,81.005386 63.641129,82.148621 
	C63.564445,82.871742 63.682877,83.438705 63.839233,84.346130 
	C63.852455,85.142601 63.827755,85.598625 63.501198,86.194336 
	C60.821644,86.542503 58.443954,86.750977 56.031479,86.970291 
	C55.996689,86.981125 56.039131,86.921883 55.995033,86.712753 
	C55.828373,86.227333 55.625191,86.037209 55.038921,85.750824 
	C54.547005,85.141045 54.357555,84.713715 54.061081,84.024750 
	C53.285053,84.131493 52.616051,84.499863 51.783600,85.163193 
	C51.625969,86.008842 51.397655,86.836464 51.672554,87.068871 
	C56.123116,90.831444 60.637558,94.518456 65.705688,98.690239 
	C65.849052,99.042580 66.407242,100.414413 66.837860,102.023651 
	C77.243683,109.944351 87.777069,117.627655 98.310448,125.310966 
z"/>
<path fill="#4F1010" opacity="1.000000" stroke="none" 
	d="
M100.880615,37.909458 
	C102.347343,38.512794 103.972511,38.883308 105.255646,39.756451 
	C115.173241,46.505093 125.024673,53.350952 135.242508,60.195862 
	C140.678986,86.749420 125.351959,113.992462 98.669266,125.260117 
	C87.777069,117.627655 77.243683,109.944351 67.289902,102.028175 
	C73.656021,101.795311 79.442543,101.795311 85.229065,101.795311 
	C84.964378,101.214653 84.699692,100.633995 84.435005,100.053329 
	C85.618889,98.660637 86.576874,96.932426 88.036682,95.949532 
	C90.578339,94.238220 93.474869,93.064812 96.137939,91.519905 
	C98.717056,90.023720 99.646660,86.098198 97.766617,82.994499 
	C96.968803,84.083183 96.463699,85.305916 95.549751,85.906654 
	C93.743935,87.093605 91.711861,87.936317 89.773346,88.921371 
	C88.917168,87.066772 87.941658,85.255539 87.246536,83.342422 
	C86.778816,82.055168 86.707527,80.623886 86.459236,79.258980 
	C96.045952,78.217026 100.815536,73.949005 103.115997,64.363205 
	C105.292274,55.294891 103.853279,46.539074 100.880615,37.909458 
z"/>
<path fill="#FAF8F8" opacity="1.000000" stroke="none" 
	d="
M100.522308,37.987766 
	C103.853279,46.539074 105.292274,55.294891 103.115997,64.363205 
	C100.815536,73.949005 96.045952,78.217026 86.459236,79.258980 
	C86.707527,80.623886 86.778816,82.055168 87.246536,83.342422 
	C87.941658,85.255539 88.917168,87.066772 89.773346,88.921371 
	C91.711861,87.936317 93.743935,87.093605 95.549751,85.906654 
	C96.463699,85.305916 96.968803,84.083183 97.766617,82.994499 
	C99.646660,86.098198 98.717056,90.023720 96.137939,91.519905 
	C93.474869,93.064812 90.578339,94.238220 88.036682,95.949532 
	C86.576874,96.932426 85.618889,98.660637 84.435005,100.053329 
	C84.699692,100.633995 84.964378,101.214653 85.229065,101.795311 
	C79.442543,101.795311 73.656021,101.795311 67.417465,101.790787 
	C66.407242,100.414413 65.849052,99.042580 65.705688,98.690239 
	C60.637558,94.518456 56.123116,90.831444 51.672554,87.068871 
	C51.397655,86.836464 51.625969,86.008842 52.167999,85.108627 
	C53.199932,84.601532 53.684017,84.443954 54.168106,84.286377 
	C54.357555,84.713715 54.547005,85.141045 54.982796,85.995178 
	C55.499130,86.588615 55.769131,86.755249 56.039131,86.921883 
	C56.039131,86.921883 55.996689,86.981125 56.138027,87.343491 
	C58.575150,88.553078 60.991146,89.177399 63.123558,90.327522 
	C64.496941,91.068253 65.453880,92.581116 66.597458,93.747925 
	C67.555710,92.172653 68.649170,90.660988 69.429619,89.002075 
	C70.059235,87.663773 70.311066,86.147743 70.804237,84.457863 
	C67.945747,85.109810 65.874405,85.582222 63.803059,86.054642 
	C63.827755,85.598625 63.852455,85.142601 63.926712,84.015915 
	C63.929592,82.894318 63.882915,82.443398 63.836243,81.992470 
	C64.268631,81.005386 64.701012,80.018295 65.273201,78.712044 
	C57.511436,79.281700 52.886360,75.444771 50.410187,69.051956 
	C46.369015,58.618740 47.590065,48.333862 52.691986,38.171856 
	C52.890846,39.467285 52.725391,40.985912 53.356712,42.016396 
	C55.269142,45.137985 57.110214,48.463337 59.697777,50.966328 
	C62.294621,53.478291 65.755501,55.097027 69.361694,57.448971 
	C70.269608,55.803688 71.573395,53.441036 72.893448,51.048889 
	C70.878395,50.068272 68.979050,49.143959 67.168549,48.262886 
	C69.402435,41.996307 74.403862,43.414928 78.641777,42.883507 
	C79.801170,47.988323 80.916992,52.901291 82.231750,58.690205 
	C88.888451,51.612225 99.896248,49.673191 100.522308,37.987766 
M85.735931,92.984131 
	C87.977638,88.055458 86.992592,86.277702 80.066406,85.488983 
	C81.738998,88.104576 83.411583,90.720161 85.735931,92.984131 
z"/>
<path fill="#B94041" opacity="1.000000" stroke="none" 
	d="
M63.501198,86.194336 
	C65.874405,85.582222 67.945747,85.109810 70.804237,84.457863 
	C70.311066,86.147743 70.059235,87.663773 69.429619,89.002075 
	C68.649170,90.660988 67.555710,92.172653 66.597458,93.747925 
	C65.453880,92.581116 64.496941,91.068253 63.123558,90.327522 
	C60.991146,89.177399 58.575150,88.553078 56.172813,87.332657 
	C58.443954,86.750977 60.821644,86.542503 63.501198,86.194336 
z"/>
<path fill="#B94041" opacity="1.000000" stroke="none" 
	d="
M54.061081,84.024750 
	C53.684017,84.443954 53.199932,84.601532 52.331444,84.813667 
	C52.616051,84.499863 53.285053,84.131493 54.061081,84.024750 
z"/>
<path fill="#B94041" opacity="1.000000" stroke="none" 
	d="
M63.641125,82.148621 
	C63.882915,82.443398 63.929592,82.894318 63.888790,83.675461 
	C63.682877,83.438705 63.564445,82.871742 63.641125,82.148621 
z"/>
<path fill="#B94041" opacity="1.000000" stroke="none" 
	d="
M55.995033,86.712753 
	C55.769131,86.755249 55.499130,86.588615 55.285259,86.177620 
	C55.625191,86.037209 55.828373,86.227333 55.995033,86.712753 
z"/>
<path fill="#632F30" opacity="1.000000" stroke="none" 
	d="
M85.410049,93.159943 
	C83.411583,90.720161 81.738998,88.104576 80.066406,85.488983 
	C86.992592,86.277702 87.977638,88.055458 85.410049,93.159943 
z"/>
</svg>